<?xml version="1.0" encoding="UTF-8" standalone="no"?>
<!DOCTYPE svg PUBLIC "-//W3C//DTD SVG 1.1//EN" "http://www.w3.org/Graphics/SVG/1.1/DTD/svg11.dtd">
<svg width="100%" height="100%" viewBox="0 0 95 94" version="1.1" xmlns="http://www.w3.org/2000/svg" xmlns:xlink="http://www.w3.org/1999/xlink" xml:space="preserve" xmlns:serif="http://www.serif.com/" style="fill-rule:evenodd;clip-rule:evenodd;stroke-linejoin:round;stroke-miterlimit:2;">
    <g transform="matrix(1,0,0,1,-847.946,-75.7726)">
        <g transform="matrix(3.58891,0,0,3.58891,891.576,135.392)">
            <g id="Logo">
                <path d="M0,-7.047L-4.046,8.608C-2.785,9.13 -1.424,9.46 0,9.565L0,-7.047ZM-8.71,5.341C-7.7,6.443 -6.503,7.372 -5.171,8.078L0,-7.047L-8.71,5.341ZM0,-9.085L0,-16.612C-6.796,-16.117 -12.157,-10.446 -12.157,-3.524C-12.157,-2.395 -12.014,-1.298 -11.746,-0.254L0,-7.047L-7.407,-7.047L-7.407,-9.085L0,-9.085ZM0,-7.047L-11.353,1.008C-10.926,2.168 -10.34,3.251 -9.621,4.231L0,-7.047ZM14.09,-3.524C14.09,3.364 8.785,9.012 2.038,9.556L2.038,-7.047L9.444,-7.047L9.444,-9.085L2.038,-9.085L2.038,-16.604C8.785,-16.06 14.09,-10.411 14.09,-3.524" style="fill:white;fill-rule:nonzero;"/>
            </g>
        </g>
    </g>
</svg>
