<?xml version="1.0" encoding="UTF-8" standalone="no"?>
<!DOCTYPE svg PUBLIC "-//W3C//DTD SVG 1.1//EN" "http://www.w3.org/Graphics/SVG/1.1/DTD/svg11.dtd">
<svg width="100%" height="100%" viewBox="0 0 271 191" version="1.1" xmlns="http://www.w3.org/2000/svg" xmlns:xlink="http://www.w3.org/1999/xlink" xml:space="preserve" xmlns:serif="http://www.serif.com/" style="fill-rule:evenodd;clip-rule:evenodd;stroke-linejoin:round;stroke-miterlimit:2;">
    <g transform="matrix(1,0,0,1,-140,-1427.34)">
        <g transform="matrix(1.21373,0,0,1.21373,-283.728,-364.229)">
            <g transform="matrix(209.192,0,0,209.192,343.01,1632.98)">
            </g>
            <g transform="matrix(209.192,0,0,209.192,377.45,1632.98)">
            </g>
            <g transform="matrix(209.192,0,0,209.192,417.631,1632.98)">
            </g>
            <g transform="matrix(209.192,0,0,209.192,452.071,1632.98)">
            </g>
            <g transform="matrix(209.192,0,0,209.192,486.511,1632.98)">
            </g>
            <g transform="matrix(209.192,0,0,209.192,520.951,1632.98)">
            </g>
            <g transform="matrix(209.192,0,0,209.192,549.651,1632.98)">
            </g>
            <g transform="matrix(209.192,0,0,209.192,578.352,1632.98)">
            </g>
            <text x="343.01px" y="1632.98px" style="font-family:'FontAwesome6Brands-Regular', 'Font Awesome 6 Brands';font-size:209.192px;fill:red;"></text>
        </g>
    </g>
</svg>
